<svg width="25" height="25" viewBox="0 0 25 25" fill="none" xmlns="http://www.w3.org/2000/svg">
<path d="M19.3711 6.14862L18.0911 7.14862L12.6411 11.1986L7.19106 7.10862L5.91106 6.10862C5.60952 5.85917 5.24141 5.70366 4.85235 5.66137C4.46329 5.61908 4.07037 5.69186 3.72227 5.8707C3.37417 6.04955 3.08619 6.32658 2.89401 6.6675C2.70182 7.00841 2.61387 7.39821 2.64106 7.78862V19.3786C2.64106 19.7393 2.78435 20.0852 3.0394 20.3403C3.29445 20.5953 3.64037 20.7386 4.00106 20.7386H7.19106V13.0186L12.6411 17.1086L18.0911 13.0186V20.7386H21.2811C21.6418 20.7386 21.9877 20.5953 22.2427 20.3403C22.4978 20.0852 22.6411 19.7393 22.6411 19.3786V7.78862C22.6598 7.40158 22.5658 7.01742 22.3703 6.68284C22.1749 6.34826 21.8864 6.07767 21.54 5.90395C21.1937 5.73024 20.8043 5.66088 20.4192 5.70432C20.0342 5.74775 19.67 5.90211 19.3711 6.14862Z" fill="white"/>
</svg>
