<svg width="25" height="25" viewBox="0 0 25 25" fill="none" xmlns="http://www.w3.org/2000/svg">
<path d="M13.6394 2.5C14.7644 2.503 15.3354 2.509 15.8284 2.523L16.0224 2.53C16.2464 2.538 16.4674 2.548 16.7344 2.56C17.7984 2.61 18.5244 2.778 19.1614 3.025C19.8214 3.279 20.3774 3.623 20.9334 4.178C21.4421 4.67773 21.8356 5.28247 22.0864 5.95C22.3334 6.587 22.5014 7.313 22.5514 8.378C22.5634 8.644 22.5734 8.865 22.5814 9.09L22.5874 9.284C22.6024 9.776 22.6084 10.347 22.6104 11.472L22.6114 12.218V13.528C22.6138 14.2574 22.6062 14.9868 22.5884 15.716L22.5824 15.91C22.5744 16.135 22.5644 16.356 22.5524 16.622C22.5024 17.687 22.3324 18.412 22.0864 19.05C21.8356 19.7175 21.4421 20.3223 20.9334 20.822C20.4337 21.3307 19.8289 21.7242 19.1614 21.975C18.5244 22.222 17.7984 22.39 16.7344 22.44L16.0224 22.47L15.8284 22.476C15.3354 22.49 14.7644 22.497 13.6394 22.499L12.8934 22.5H11.5844C10.8547 22.5026 10.1249 22.4949 9.39541 22.477L9.20141 22.471C8.96402 22.462 8.72668 22.4517 8.48941 22.44C7.42541 22.39 6.69941 22.222 6.06141 21.975C5.39424 21.7241 4.78985 21.3306 4.29041 20.822C3.78135 20.3224 3.38752 19.7176 3.13641 19.05C2.88941 18.413 2.72141 17.687 2.67141 16.622L2.64141 15.91L2.63641 15.716C2.61797 14.9868 2.60964 14.2574 2.61141 13.528V11.472C2.60864 10.7426 2.61597 10.0132 2.63341 9.284L2.64041 9.09C2.64841 8.865 2.65841 8.644 2.67041 8.378C2.72041 7.313 2.88841 6.588 3.13541 5.95C3.3871 5.2822 3.78163 4.67744 4.29141 4.178C4.79056 3.66955 5.3946 3.27607 6.06141 3.025C6.69941 2.778 7.42441 2.61 8.48941 2.56C8.75541 2.548 8.97741 2.538 9.20141 2.53L9.39541 2.524C10.1246 2.50623 10.854 2.49857 11.5834 2.501L13.6394 2.5ZM12.6114 7.5C11.2853 7.5 10.0136 8.02678 9.07587 8.96447C8.13819 9.90215 7.61141 11.1739 7.61141 12.5C7.61141 13.8261 8.13819 15.0979 9.07587 16.0355C10.0136 16.9732 11.2853 17.5 12.6114 17.5C13.9375 17.5 15.2093 16.9732 16.1469 16.0355C17.0846 15.0979 17.6114 13.8261 17.6114 12.5C17.6114 11.1739 17.0846 9.90215 16.1469 8.96447C15.2093 8.02678 13.9375 7.5 12.6114 7.5ZM12.6114 9.5C13.0054 9.49993 13.3955 9.57747 13.7595 9.72817C14.1235 9.87887 14.4543 10.0998 14.7329 10.3783C15.0115 10.6569 15.2325 10.9875 15.3834 11.3515C15.5342 11.7154 15.6118 12.1055 15.6119 12.4995C15.612 12.8935 15.5344 13.2836 15.3837 13.6476C15.233 14.0116 15.0121 14.3423 14.7336 14.621C14.4551 14.8996 14.1244 15.1206 13.7604 15.2714C13.3965 15.4223 13.0064 15.4999 12.6124 15.5C11.8168 15.5 11.0537 15.1839 10.4911 14.6213C9.92848 14.0587 9.61241 13.2956 9.61241 12.5C9.61241 11.7044 9.92848 10.9413 10.4911 10.3787C11.0537 9.81607 11.8168 9.5 12.6124 9.5M17.8624 6C17.5309 6 17.2129 6.1317 16.9785 6.36612C16.7441 6.60054 16.6124 6.91848 16.6124 7.25C16.6124 7.58152 16.7441 7.89946 16.9785 8.13388C17.2129 8.3683 17.5309 8.5 17.8624 8.5C18.1939 8.5 18.5119 8.3683 18.7463 8.13388C18.9807 7.89946 19.1124 7.58152 19.1124 7.25C19.1124 6.91848 18.9807 6.60054 18.7463 6.36612C18.5119 6.1317 18.1939 6 17.8624 6Z" fill="white"/>
</svg>
