<svg width="25" height="25" viewBox="0 0 25 25" fill="none" xmlns="http://www.w3.org/2000/svg">
<path d="M23.0714 6.26147C22.3014 6.61147 21.4714 6.84147 20.6114 6.95147C21.4914 6.42147 22.1714 5.58147 22.4914 4.57147C21.6614 5.07147 20.7414 5.42147 19.7714 5.62147C18.9814 4.76147 17.8714 4.26147 16.6114 4.26147C14.2614 4.26147 12.3414 6.18147 12.3414 8.55147C12.3414 8.89147 12.3814 9.22148 12.4514 9.53148C8.89137 9.35148 5.72137 7.64147 3.61137 5.05147C3.24137 5.68147 3.03137 6.42147 3.03137 7.20147C3.03137 8.69147 3.78137 10.0115 4.94137 10.7615C4.23137 10.7615 3.57137 10.5615 2.99137 10.2615V10.2915C2.99137 12.3715 4.47137 14.1115 6.43137 14.5015C5.80221 14.6744 5.1414 14.6984 4.50137 14.5715C4.77297 15.424 5.3049 16.1699 6.02238 16.7044C6.73986 17.2389 7.60681 17.5352 8.50137 17.5515C6.98504 18.752 5.10538 19.4009 3.17137 19.3915C2.83137 19.3915 2.49137 19.3715 2.15137 19.3315C4.05137 20.5515 6.31137 21.2615 8.73137 21.2615C16.6114 21.2615 20.9414 14.7215 20.9414 9.05147C20.9414 8.86147 20.9414 8.68147 20.9314 8.49147C21.7714 7.89147 22.4914 7.13147 23.0714 6.26147Z" fill="white"/>
</svg>
